<?xml version="1.0" standalone="no"?>
<!DOCTYPE svg PUBLIC "-//W3C//DTD SVG 20010904//EN"
 "http://www.w3.org/TR/2001/REC-SVG-20010904/DTD/svg10.dtd">
<svg version="1.0" xmlns="http://www.w3.org/2000/svg"
 width="1920.000000pt" height="1100.000000pt" viewBox="0 0 1920.000000 1100.000000"
 preserveAspectRatio="xMidYMid meet">

<g transform="translate(0.000000,1100.000000) scale(0.100000,-0.100000)"
fill="darken" stroke="none">
<path d="M0 10711 c0 -33 6 -37 30 -21 11 7 12 14 4 27 -18 30 -34 27 -34 -6z"/>
<path d="M50 10671 c0 -17 12 -41 21 -41 5 0 9 11 9 25 0 16 -6 25 -15 25 -8
0 -15 -4 -15 -9z"/>
<path d="M92 10629 c2 -7 10 -15 17 -17 8 -3 12 1 9 9 -2 7 -10 15 -17 17 -8
3 -12 -1 -9 -9z"/>
<path d="M117 10580 c7 -25 36 -23 41 3 3 12 -3 17 -21 17 -20 0 -24 -4 -20
-20z"/>
<path d="M170 10546 c0 -8 -2 -21 -6 -29 -3 -8 6 -21 22 -32 26 -17 28 -17 41
1 17 23 17 34 -1 34 -7 0 -16 9 -19 20 -6 23 -37 28 -37 6z"/>
<path d="M253 10445 c-9 -10 -6 -21 15 -49 15 -19 33 -35 40 -36 6 0 12 -8 12
-18 0 -11 12 -24 26 -31 17 -8 24 -17 20 -27 -4 -11 1 -18 14 -21 11 -3 20
-11 20 -18 0 -14 96 -105 111 -105 16 0 9 19 -14 35 -17 12 -19 17 -8 24 9 6
10 11 2 15 -6 4 -11 2 -11 -3 0 -6 -4 -11 -10 -11 -5 0 -10 7 -10 15 0 27 -49
94 -79 110 -17 8 -31 25 -33 37 -2 14 -12 24 -28 28 -15 4 -26 14 -28 27 -4
30 -24 44 -39 28z"/>
<path d="M110 10352 c0 -5 7 -17 15 -28 14 -18 14 -18 15 9 0 17 -5 27 -15 27
-8 0 -15 -4 -15 -8z"/>
<path d="M160 10301 c0 -7 -4 -9 -10 -6 -5 3 -10 -3 -10 -14 0 -11 5 -23 10
-26 6 -3 10 1 10 9 0 8 7 16 17 18 15 3 15 4 0 17 -12 9 -17 10 -17 2z"/>
<path d="M210 10170 c12 -16 23 -30 26 -30 2 0 4 14 4 30 0 26 -4 30 -26 30
l-25 0 21 -30z"/>
<path d="M540 10110 c0 -5 5 -10 10 -10 6 0 10 -6 10 -14 0 -15 29 -30 38 -21
6 6 -42 55 -53 55 -3 0 -5 -4 -5 -10z"/>
<path d="M270 10096 c0 -7 8 -24 19 -37 10 -13 21 -31 24 -39 3 -8 6 3 6 26 1
34 -3 43 -24 52 -20 9 -25 9 -25 -2z"/>
<path d="M0 9868 c1 -35 20 -68 39 -68 15 0 41 -25 41 -40 0 -6 8 -14 17 -17
10 -4 32 -21 49 -37 44 -43 85 -76 91 -76 4 0 30 -21 58 -47 29 -27 68 -61 86
-77 19 -16 57 -48 85 -72 28 -24 53 -44 56 -44 2 0 27 -20 54 -45 49 -45 64
-53 64 -35 0 15 -58 70 -73 70 -7 0 -28 20 -47 45 -19 24 -38 44 -43 45 -4 0
-17 11 -29 25 -12 14 -28 25 -35 25 -7 0 -13 6 -13 13 0 7 -19 29 -41 48 -23
19 -78 69 -123 112 -91 87 -114 107 -121 107 -3 0 -28 23 -55 50 -27 28 -52
50 -55 50 -3 0 -5 -15 -5 -32z"/>
<path d="M837 9799 c7 -7 15 -10 18 -7 3 3 -2 9 -12 12 -14 6 -15 5 -6 -5z"/>
<path d="M936 9711 c-8 -12 3 -41 15 -41 5 0 9 11 9 25 0 25 -14 34 -24 16z"/>
<path d="M0 9545 l0 -130 40 -38 c22 -20 40 -42 40 -47 0 -6 19 -10 43 -10 37
-1 40 -2 25 -14 -22 -16 -23 -30 -3 -22 8 3 15 1 15 -4 0 -6 9 -10 20 -10 11
0 23 -7 26 -15 4 -8 12 -15 20 -15 8 0 14 -7 14 -15 0 -11 11 -15 40 -15 36 0
40 3 40 24 0 18 -9 27 -40 40 -40 16 -40 16 -40 71 0 57 -12 70 -35 39 -8 -12
-20 -15 -43 -9 l-32 7 0 88 c0 60 -4 90 -12 94 -43 21 -74 45 -84 65 -29 58
-34 47 -34 -84z m50 -75 c0 -5 -6 -10 -14 -10 -8 0 -18 5 -21 10 -3 6 3 10 14
10 12 0 21 -4 21 -10z"/>
<path d="M80 9650 c0 -5 5 -10 10 -10 6 0 10 5 10 10 0 6 -4 10 -10 10 -5 0
-10 -4 -10 -10z"/>
<path d="M960 9650 c0 -5 5 -10 10 -10 6 0 10 5 10 10 0 6 -4 10 -10 10 -5 0
-10 -4 -10 -10z"/>
<path d="M1025 9630 c3 -5 8 -10 11 -10 2 0 4 5 4 10 0 6 -5 10 -11 10 -5 0
-7 -4 -4 -10z"/>
<path d="M16398 9323 c-22 -5 -23 -26 -3 -43 21 -17 47 -5 43 22 -3 23 -13 28
-40 21z"/>
<path d="M200 9216 c0 -9 5 -16 10 -16 6 0 10 4 10 9 0 6 -4 13 -10 16 -5 3
-10 -1 -10 -9z"/>
<path d="M720 9211 c0 -5 9 -11 21 -14 16 -4 18 -3 8 9 -13 16 -29 19 -29 5z"/>
<path d="M357 9183 c-14 -13 -6 -23 18 -23 16 0 25 -6 25 -16 0 -9 5 -14 12
-12 18 6 21 28 4 28 -9 0 -16 7 -16 15 0 15 -31 21 -43 8z"/>
<path d="M795 9159 c-4 -6 -5 -12 -2 -15 2 -3 7 2 10 11 7 17 1 20 -8 4z"/>
<path d="M457 9103 c-4 -3 -7 -28 -7 -55 l0 -48 55 0 55 0 0 -40 0 -40 80 0
c78 0 105 12 55 24 -15 4 -27 16 -31 31 -3 14 -10 25 -15 25 -5 0 -9 7 -9 15
0 8 -9 15 -20 15 -12 0 -32 11 -46 25 -14 14 -33 25 -42 25 -9 0 -26 7 -36 15
-22 17 -29 18 -39 8z"/>
<path d="M880 9076 c0 -21 60 -78 78 -74 10 2 2 16 -28 46 -47 47 -50 48 -50
28z"/>
<path d="M0 9026 c0 -23 40 -66 62 -66 5 0 19 -10 31 -21 12 -12 38 -28 57
-36 19 -8 49 -26 67 -39 17 -13 36 -24 42 -24 6 0 11 -4 11 -9 0 -5 11 -12 25
-15 14 -4 25 -11 25 -16 0 -6 5 -10 11 -10 13 0 131 -78 173 -115 16 -14 34
-25 41 -25 6 0 22 -11 35 -25 13 -14 31 -25 41 -25 9 0 19 -7 23 -15 3 -8 12
-15 19 -15 8 0 20 -7 27 -15 7 -8 20 -15 29 -15 9 0 31 -16 50 -35 18 -19 39
-35 47 -35 8 0 26 -7 39 -16 24 -16 25 -16 25 10 0 16 -6 26 -14 26 -22 0 -74
31 -115 67 -20 18 -60 45 -89 59 -28 14 -57 34 -62 45 -6 10 -17 19 -25 19 -8
0 -15 5 -15 10 0 6 -6 10 -12 10 -15 0 -72 37 -151 98 -31 23 -58 42 -60 42
-6 0 -131 83 -137 91 -3 3 -20 14 -38 23 -18 9 -36 24 -39 32 -3 7 -13 14 -22
14 -9 0 -32 11 -51 25 -42 31 -50 31 -50 1z"/>
<path d="M992 8969 c2 -7 10 -15 17 -17 8 -3 12 1 9 9 -2 7 -10 15 -17 17 -8
3 -12 -1 -9 -9z"/>
<path d="M1078 8889 c34 -31 58 -34 28 -4 -9 9 -16 21 -16 26 0 5 -10 9 -22 9
-21 -1 -21 -3 10 -31z"/>
<path d="M690 8836 c0 -2 7 -9 15 -16 12 -10 15 -10 15 4 0 9 -7 16 -15 16 -8
0 -15 -2 -15 -4z"/>
<path d="M1183 8822 c10 -10 17 -25 17 -32 0 -17 48 -60 67 -60 7 0 13 7 13
15 0 8 -5 15 -12 15 -16 0 -68 51 -68 67 0 7 -7 13 -17 13 -15 0 -15 -1 0 -18z"/>
<path d="M0 8697 c0 -32 0 -32 43 -28 23 2 35 6 27 9 -8 3 -23 16 -33 29 -25
32 -37 29 -37 -10z"/>
<path d="M1310 8690 c0 -5 5 -10 11 -10 7 0 18 -8 25 -17 10 -13 13 -14 14 -4
0 13 -28 40 -42 41 -5 0 -8 -4 -8 -10z"/>
<path d="M80 8631 c0 -14 5 -19 15 -14 17 6 15 25 -3 31 -7 2 -12 -5 -12 -17z"/>
<path d="M1360 8615 c0 -9 9 -15 24 -15 14 0 28 -4 31 -10 8 -13 25 -13 25 0
0 5 -16 17 -36 25 -45 18 -44 18 -44 0z"/>
<path d="M290 8512 c0 -18 43 -42 75 -42 31 0 35 -3 35 -25 0 -14 -4 -25 -10
-25 -5 0 -10 -7 -10 -15 0 -8 5 -15 10 -15 6 0 10 -7 10 -15 0 -11 11 -15 40
-15 30 0 40 4 40 16 0 17 21 15 27 -3 2 -6 -10 -14 -26 -18 -35 -7 -38 -20
-15 -53 19 -27 94 -33 94 -7 0 11 11 15 40 15 l40 0 0 -65 c0 -51 3 -65 15
-65 8 0 15 5 15 10 0 6 18 10 40 10 l40 0 0 45 c0 51 -16 65 -74 65 -35 0 -36
1 -36 40 0 39 -1 40 -36 40 -26 0 -43 7 -59 24 -31 33 -135 76 -185 76 -29 0
-40 4 -40 15 0 8 -7 15 -15 15 -8 0 -15 -3 -15 -8z"/>
<path d="M910 8431 c0 -9 24 -21 41 -21 5 0 9 7 9 15 0 9 -9 15 -25 15 -14 0
-25 -4 -25 -9z"/>
<path d="M960 8375 c0 -8 7 -15 16 -15 9 0 27 -9 41 -19 26 -21 48 -19 57 5 3
9 -1 14 -14 14 -11 0 -20 7 -20 15 0 11 -11 15 -40 15 -29 0 -40 -4 -40 -15z"/>
<path d="M1095 8303 c-16 -15 -12 -18 44 -46 34 -16 61 -36 61 -44 0 -20 34
-12 38 8 2 10 -6 19 -18 22 -11 3 -20 12 -20 21 0 10 -9 16 -23 16 -13 0 -33
9 -45 20 -19 18 -22 19 -37 3z"/>
<path d="M540 8256 c0 -8 5 -18 10 -21 6 -3 10 3 10 14 0 12 -4 21 -10 21 -5
0 -10 -6 -10 -14z"/>
<path d="M1266 8181 c10 -10 23 -15 28 -11 13 12 -3 30 -26 30 -21 0 -21 0 -2
-19z"/>
<path d="M1344 8149 c-9 -15 10 -32 30 -27 15 3 14 5 -3 20 -13 11 -23 13 -27
7z"/>
<path d="M785 7969 c-16 -6 -14 -8 13 -8 33 -1 41 4 20 12 -7 2 -22 1 -33 -4z"/>
<path d="M1600 7950 c0 -5 4 -10 9 -10 6 0 13 5 16 10 3 6 -1 10 -9 10 -9 0
-16 -4 -16 -10z"/>
<path d="M17458 7823 c-9 -22 -12 -24 -15 -10 -4 14 -16 17 -84 17 -64 0 -79
-3 -79 -15 0 -9 -9 -15 -25 -15 -22 0 -25 -4 -25 -40 0 -29 -4 -40 -15 -40 -8
0 -15 -7 -15 -15 0 -11 -11 -15 -40 -15 -36 0 -40 -2 -40 -25 0 -22 -4 -25
-40 -25 -22 0 -40 -4 -40 -10 0 -5 -7 -10 -15 -10 -8 0 -15 5 -15 10 0 6 7 10
15 10 8 0 15 7 15 15 0 12 -16 14 -94 11 -52 -3 -104 -9 -115 -15 -11 -6 -40
-11 -65 -11 -34 0 -46 -4 -46 -15 0 -12 -16 -15 -80 -15 -64 0 -80 3 -80 15 0
11 11 15 40 15 22 0 40 5 40 10 0 6 -18 10 -40 10 -22 0 -40 -4 -40 -10 0 -5
-4 -10 -9 -10 -5 0 -23 -14 -40 -31 -17 -17 -31 -35 -31 -40 0 -5 -7 -9 -15
-9 -11 0 -15 -11 -15 -40 0 -36 3 -40 24 -40 24 0 86 -51 86 -71 0 -5 18 -9
40 -9 28 0 40 -4 40 -15 0 -14 65 -33 77 -22 3 4 21 0 40 -8 20 -8 55 -15 79
-15 24 0 44 -4 44 -9 0 -9 36 -18 105 -27 22 -3 59 -14 82 -25 24 -10 63 -19
88 -19 25 0 45 -4 45 -10 0 -5 8 -10 19 -10 10 0 24 -6 30 -14 6 -7 34 -16 61
-20 38 -5 50 -11 50 -24 0 -32 83 -55 108 -30 8 8 15 8 27 -2 22 -18 129 -39
203 -40 48 0 62 -3 62 -15 0 -8 4 -15 8 -15 12 0 68 -80 75 -105 5 -19 5 -19
12 1 7 22 53 34 126 34 16 0 29 4 29 10 0 13 59 27 88 22 24 -5 62 -69 62
-104 0 -14 8 -18 38 -18 30 0 41 -6 57 -30 16 -24 25 -29 46 -25 20 5 33 -2
62 -30 20 -20 37 -45 37 -55 0 -11 7 -20 15 -20 7 0 18 -7 23 -16 13 -24 55
-9 47 17 -6 16 -1 19 32 19 l39 0 2 -44 c1 -30 9 -52 24 -69 13 -14 31 -53 42
-86 10 -34 22 -61 27 -61 5 0 12 -18 15 -40 4 -22 10 -40 14 -40 4 0 10 -8 14
-17 6 -18 27 -54 37 -63 3 -3 13 -26 23 -53 25 -67 68 -89 81 -39 3 15 23 51
42 80 40 58 68 67 103 32 19 -19 20 -29 14 -133 -5 -90 -3 -119 9 -149 9 -21
21 -38 26 -38 6 0 10 -10 8 -22 -1 -16 5 -23 23 -28 15 -3 26 -15 30 -30 3
-14 11 -25 18 -24 7 1 26 2 42 3 30 1 31 2 25 39 -7 39 -35 113 -46 122 -4 3
-9 30 -12 60 -9 92 -18 119 -48 144 -16 14 -29 28 -29 32 0 4 -8 17 -19 28
-10 12 -29 41 -42 66 -13 25 -32 52 -41 61 -10 9 -18 21 -18 26 0 6 -9 18 -20
28 -11 10 -20 25 -20 34 0 9 -10 21 -22 26 -13 6 -27 20 -33 33 -8 18 -18 22
-57 22 -42 0 -48 3 -48 21 0 11 -9 33 -19 48 -11 15 -26 47 -33 70 -8 28 -21
46 -35 52 -12 4 -28 17 -35 29 -7 11 -18 20 -25 20 -8 0 -13 15 -13 40 0 29
-4 40 -15 40 -8 0 -22 18 -31 40 -9 22 -20 40 -25 40 -5 0 -9 7 -9 15 0 8 -4
15 -10 15 -5 0 -12 11 -16 25 -3 14 -10 25 -15 25 -5 0 -9 18 -9 40 l0 40 65
0 c40 0 65 4 65 11 0 6 7 17 15 25 8 9 15 25 15 36 0 15 -5 19 -20 15 -14 -3
-31 6 -55 30 -19 19 -35 40 -35 47 0 6 -10 16 -22 21 -12 6 -31 27 -42 48 -11
20 -27 37 -36 37 -9 0 -27 11 -40 25 -13 14 -28 25 -34 25 -6 0 -20 18 -30 40
-12 26 -26 40 -38 40 -27 0 -78 41 -78 62 0 11 -7 18 -19 18 -10 0 -21 9 -24
20 -3 11 -12 20 -21 20 -9 0 -16 8 -16 20 0 15 -7 20 -28 20 -15 0 -33 5 -40
12 -9 9 -12 9 -12 0 0 -7 -16 -12 -40 -12 -22 0 -40 4 -40 9 0 5 -36 12 -80
16 -44 4 -80 11 -80 16 0 5 -18 9 -40 9 -22 0 -40 -4 -40 -10 0 -6 -33 -10
-79 -10 -68 0 -80 -3 -84 -17 -3 -14 -6 -12 -15 10 -6 15 -16 27 -22 27 -6 0
-16 -12 -22 -27z"/>
<path d="M1120 7810 c0 -5 7 -10 16 -10 8 0 12 5 9 10 -3 6 -10 10 -16 10 -5
0 -9 -4 -9 -10z"/>
<path d="M540 7735 c0 -8 5 -15 10 -15 6 0 10 7 10 15 0 8 -4 15 -10 15 -5 0
-10 -7 -10 -15z"/>
<path d="M641 7734 c0 -11 3 -14 6 -6 3 7 2 16 -1 19 -3 4 -6 -2 -5 -13z"/>
<path d="M18670 6158 c0 -7 5 -20 10 -28 8 -12 10 -9 10 13 0 15 -4 27 -10 27
-5 0 -10 -6 -10 -12z"/>
<path d="M18700 6076 c0 -8 5 -18 10 -21 6 -3 10 1 10 9 0 8 -4 18 -10 21 -5
3 -10 -1 -10 -9z"/>
<path d="M18716 6003 c4 -21 11 -48 15 -61 5 -13 6 -48 3 -78 -7 -53 -5 -57
26 -89 18 -19 46 -37 62 -40 15 -3 42 -8 58 -11 l30 -6 0 52 c0 51 -15 78 -60
106 -17 10 -38 40 -46 67 -4 9 -10 17 -14 17 -4 0 -15 18 -25 40 -12 26 -25
40 -37 40 -16 0 -18 -5 -12 -37z"/>
<path d="M3600 5895 c0 -8 7 -15 16 -15 14 0 14 3 4 15 -7 8 -14 15 -16 15 -2
0 -4 -7 -4 -15z"/>
<path d="M18926 5892 c-3 -5 -1 -26 4 -48 5 -21 10 -63 10 -91 0 -29 5 -53 10
-53 6 0 10 -9 10 -19 0 -22 38 -91 50 -91 4 0 10 -9 13 -19 7 -29 77 -72 105
-64 16 4 21 10 17 22 -4 9 -8 21 -9 26 -4 20 -38 85 -45 85 -4 0 -13 17 -20
37 -8 20 -23 46 -33 57 -11 12 -27 36 -34 54 -8 17 -21 32 -29 32 -17 0 -20
16 -5 25 7 4 7 12 0 24 -11 21 -37 34 -44 23z"/>
<path d="M3200 5815 c0 -8 7 -15 16 -15 14 0 14 3 4 15 -7 8 -14 15 -16 15 -2
0 -4 -7 -4 -15z"/>
<path d="M19180 5451 c0 -6 5 -13 10 -16 6 -3 10 1 10 9 0 9 -4 16 -10 16 -5
0 -10 -4 -10 -9z"/>
<path d="M3858 4193 c12 -2 32 -2 45 0 12 2 2 4 -23 4 -25 0 -35 -2 -22 -4z"/>
<path d="M3878 4123 c42 -4 42 -4 42 -44 0 -28 4 -39 15 -39 11 0 15 11 15 39
0 43 -15 52 -80 49 -32 -1 -31 -2 8 -5z"/>
<path d="M3361 4054 c0 -11 3 -14 6 -6 3 7 2 16 -1 19 -3 4 -6 -2 -5 -13z"/>
<path d="M3430 4055 c0 -11 12 -15 45 -15 33 0 45 4 45 15 0 11 -12 15 -45 15
-33 0 -45 -4 -45 -15z"/>
<path d="M3527 3935 l6 -55 -49 -2 -49 -1 43 -4 c39 -4 42 -6 42 -33 0 -27 -3
-29 -42 -33 -24 -2 19 -4 95 -5 l137 -2 0 40 c0 29 -4 40 -15 40 -12 0 -15 13
-15 55 l0 55 -79 0 -80 0 6 -55z m70 -37 c-2 -13 -4 -3 -4 22 0 25 2 35 4 23
2 -13 2 -33 0 -45z"/>
<path d="M9280 3961 c-47 -15 -90 -41 -90 -57 0 -8 -6 -17 -12 -19 -8 -4 -13
-26 -13 -60 0 -52 3 -58 43 -99 23 -23 42 -48 42 -54 0 -13 8 -15 60 -12 69 3
108 19 139 59 17 21 31 44 31 50 0 6 9 16 20 23 14 9 20 24 20 50 0 40 -19 58
-59 58 -12 0 -21 4 -21 9 0 11 -102 61 -121 60 -8 0 -25 -4 -39 -8z"/>
<path d="M4000 3790 c0 -5 7 -7 15 -4 8 4 15 8 15 10 0 2 -7 4 -15 4 -8 0 -15
-4 -15 -10z"/>
<path d="M8722 3793 c-1 -7 -9 -10 -17 -7 -24 10 -60 -21 -84 -70 -11 -25 -21
-52 -21 -60 0 -18 43 -28 86 -20 30 5 35 10 30 27 -3 11 0 29 5 39 6 10 8 38
6 61 -2 23 -4 37 -5 30z"/>
<path d="M4060 3770 c-13 -9 -13 -11 0 -20 15 -10 25 0 18 20 -2 6 -8 6 -18 0z"/>
<path d="M4000 3730 c0 -6 7 -10 15 -10 8 0 15 2 15 4 0 2 -7 6 -15 10 -8 3
-15 1 -15 -4z"/>
<path d="M3440 3680 c0 -36 3 -40 24 -40 13 0 26 -7 30 -15 12 -33 26 -12 26
40 l0 55 -40 0 -40 0 0 -40z"/>
<path d="M3760 3680 c0 -29 4 -40 15 -40 11 0 15 11 15 40 0 29 -4 40 -15 40
-11 0 -15 -11 -15 -40z"/>
<path d="M3600 3600 c0 -5 18 -10 40 -10 22 0 40 5 40 10 0 6 -18 10 -40 10
-22 0 -40 -4 -40 -10z"/>
<path d="M3440 3576 c0 -9 7 -16 16 -16 9 0 14 5 12 12 -6 18 -28 21 -28 4z"/>
<path d="M3520 3545 c0 -11 11 -15 40 -15 29 0 40 4 40 15 0 11 -11 15 -40 15
-29 0 -40 -4 -40 -15z"/>
<path d="M9496 3551 c-5 -8 8 -11 42 -11 27 0 65 -3 83 -6 24 -5 31 -3 24 4
-15 16 -141 27 -149 13z"/>
<path d="M9800 3415 c-7 -8 -9 -15 -4 -15 5 -1 -2 -7 -16 -15 l-25 -14 34 -1
c26 0 32 3 27 15 -3 9 1 18 9 21 8 4 15 10 15 15 0 14 -26 10 -40 -6z"/>
<path d="M10086 3274 c-17 -12 -17 -14 -4 -14 9 0 20 5 23 11 11 17 2 18 -19
3z"/>
<path d="M3680 3145 c0 -11 11 -15 40 -15 29 0 40 4 40 15 0 11 -11 15 -40 15
-29 0 -40 -4 -40 -15z"/>
<path d="M3923 3040 c0 -25 2 -35 4 -22 2 12 2 32 0 45 -2 12 -4 2 -4 -23z"/>
<path d="M3993 3040 c0 -25 2 -35 4 -22 2 12 2 32 0 45 -2 12 -4 2 -4 -23z"/>
<path d="M3920 2855 c0 -11 11 -15 40 -15 l40 0 0 -40 c0 -29 4 -40 15 -40 11
0 15 11 15 40 0 29 -4 40 -15 40 -8 0 -15 7 -15 15 0 11 -11 15 -40 15 -29 0
-40 -4 -40 -15z"/>
<path d="M4300 2855 c-7 -8 -23 -15 -36 -15 -15 0 -24 -6 -24 -15 0 -11 11
-15 40 -15 38 0 40 2 40 30 0 34 -3 36 -20 15z"/>
<path d="M4240 2720 c0 -29 4 -40 15 -40 11 0 15 11 15 40 0 29 -4 40 -15 40
-11 0 -15 -11 -15 -40z"/>
<path d="M4452 2748 c6 -18 28 -21 28 -4 0 9 -7 16 -16 16 -9 0 -14 -5 -12
-12z"/>
<path d="M4377 2723 c-4 -3 -7 -15 -7 -25 0 -13 8 -18 30 -18 35 0 38 9 10 33
-23 19 -24 20 -33 10z"/>
<path d="M4130 2640 c0 -36 -2 -40 -25 -40 -14 0 -25 -4 -25 -9 0 -20 -62 -71
-86 -71 -21 0 -24 -4 -24 -40 0 -36 -2 -40 -25 -40 -15 0 -25 -6 -25 -14 0
-10 -13 -16 -41 -18 -28 -2 -46 -9 -53 -22 -8 -14 -8 -20 2 -23 6 -3 12 -16
12 -29 0 -21 4 -24 40 -24 29 0 40 -4 40 -15 0 -12 13 -15 55 -15 l55 0 0 40
c0 29 -4 40 -15 40 -8 0 -15 7 -15 15 0 11 11 15 40 15 36 0 40 3 40 25 0 16
6 25 15 25 11 0 15 11 15 40 l0 40 40 0 40 0 0 40 c0 22 4 40 9 40 5 0 11 10
14 23 2 12 8 30 12 40 5 13 2 17 -14 17 -13 0 -21 -6 -21 -17 -1 -10 -7 -29
-15 -43 -14 -25 -14 -24 -15 18 0 30 -4 42 -15 42 -11 0 -15 -11 -15 -40z"/>
<path d="M4350 2560 c0 -22 5 -40 10 -40 6 0 10 18 10 40 0 22 -4 40 -10 40
-5 0 -10 -18 -10 -40z"/>
<path d="M3840 2265 c0 -11 -11 -15 -40 -15 -39 0 -40 -1 -40 -34 0 -25 -8
-43 -31 -65 -17 -17 -35 -31 -40 -31 -5 0 -9 -7 -9 -15 0 -11 11 -15 40 -15
36 0 40 -2 40 -25 0 -22 4 -25 40 -25 30 0 40 -4 40 -16 0 -9 5 -14 12 -12 18
6 21 28 4 28 -12 0 -16 10 -16 40 l0 40 -40 0 c-29 0 -40 4 -40 15 0 11 11 15
40 15 29 0 40 -4 40 -15 0 -11 11 -15 40 -15 l40 0 0 80 0 80 -40 0 c-29 0
-40 -4 -40 -15z"/>
<path d="M4050 2160 c0 -35 -3 -40 -23 -40 -17 0 -27 -10 -40 -40 -20 -47 -33
-50 -49 -12 -12 26 -13 26 -16 -21 -3 -53 -28 -87 -62 -87 -11 0 -20 -5 -20
-11 0 -6 -11 -20 -25 -31 -14 -11 -25 -24 -25 -29 0 -5 11 -9 25 -9 23 0 25
-4 25 -40 0 -36 3 -40 25 -40 23 0 25 -4 25 -40 0 -29 4 -40 15 -40 11 0 15
11 15 40 0 22 5 40 11 40 18 0 69 57 69 78 0 20 47 75 72 85 7 3 -6 6 -29 6
-41 1 -43 2 -43 31 0 28 2 30 40 30 l40 0 0 85 c0 69 -3 85 -15 85 -11 0 -15
-11 -15 -40z"/>
<path d="M4940 1871 c0 -6 5 -13 10 -16 6 -3 10 1 10 9 0 9 -4 16 -10 16 -5 0
-10 -4 -10 -9z"/>
<path d="M4800 1789 c0 -5 5 -7 10 -4 6 3 10 8 10 11 0 2 -4 4 -10 4 -5 0 -10
-5 -10 -11z"/>
<path d="M4720 1730 c0 -5 5 -10 11 -10 5 0 7 5 4 10 -3 6 -8 10 -11 10 -2 0
-4 -4 -4 -10z"/>
<path d="M4552 1689 c-7 -10 -12 -30 -12 -44 0 -14 -7 -28 -15 -31 -8 -4 -15
-13 -15 -21 0 -20 39 -7 61 21 16 19 16 21 1 27 -14 6 -11 9 11 18 32 12 32
30 1 42 -15 5 -24 2 -32 -12z"/>
<path d="M4480 1629 c0 -5 5 -7 10 -4 6 3 10 8 10 11 0 2 -4 4 -10 4 -5 0 -10
-5 -10 -11z"/>
<path d="M4400 1550 l0 -40 -40 0 c-25 0 -40 -5 -40 -13 0 -12 -30 -28 -77
-42 -12 -3 -31 -17 -42 -31 -11 -14 -29 -24 -45 -24 -24 0 -26 -4 -26 -40 0
-29 4 -40 15 -40 10 0 15 10 15 33 1 26 2 29 11 15 13 -23 21 -23 51 5 33 29
64 47 83 47 8 0 15 6 15 14 0 7 8 17 18 20 37 15 62 31 62 43 0 6 10 13 23 15
12 2 26 13 32 26 5 12 13 22 17 22 5 0 8 7 8 15 0 11 -11 15 -40 15 l-40 0 0
-40z"/>
<path d="M4080 1295 c0 -18 4 -23 15 -19 8 4 15 15 15 25 0 10 -7 19 -15 19
-9 0 -15 -9 -15 -25z"/>
</g>
</svg>
